<svg xmlns="http://www.w3.org/2000/svg" width="24" height="24" viewBox="0 0 24 24">
    <g fill="none" fill-rule="evenodd">
        <g fill="#868E96" fill-rule="nonzero">
            <g>
                <g>
                    <path d="M3 .2v1.125l1.788-.001c.01.331.081.692.212 1.126C2.653 3.781 1.7 6.323 2 9.2c-.3 2.533.653 5.075 3 6.75-.285.602.417.958 0 2.25-1.153.467-1.487-.32-2 0-1.87-2.952-3-5.965-3-9 0-3.378 1.13-6.392 3-9z" transform="translate(-576 -176) translate(576 176) translate(0 2.8)"/>
                    <path d="M22.628.105v1.02l1.33.001c-.043.333-.231.64-.28.93-2.013 1.748-2.982 4.27-3.14 6.955.158 2.685 1.127 5.207 3.14 6.955.085.512.53 1.121 0 1.738-.528.617-1.137.092-1.57 0-1.992-2.52-3.141-5.51-3.141-8.693 0-3.182 1.149-6.173 3.141-8.693.16-.034.334-.134.52-.213z" transform="translate(-576 -176) translate(576 176) translate(0 2.8) matrix(-1 0 0 1 43 0)"/>
                    <path d="M7.72 3.479c-.372-.372-.975-.372-1.348 0C4.842 5.006 4 7.038 4 9.2s.843 4.194 2.372 5.721c.373.372.977.371 1.349 0 .372-.372.372-.974 0-1.346-1.17-1.168-1.814-2.721-1.814-4.375 0-1.653.644-3.207 1.814-4.375.372-.372.372-.974 0-1.346z" transform="translate(-576 -176) translate(576 176) translate(0 2.8)"/>
                    <path d="M19.72 3.479c-.372-.372-.975-.372-1.348 0C16.842 5.006 16 7.038 16 9.2s.843 4.194 2.372 5.721c.373.372.977.371 1.349 0 .372-.372.372-.974 0-1.346-1.17-1.168-1.814-2.721-1.814-4.375 0-1.653.644-3.207 1.814-4.375.372-.372.372-.974 0-1.346z" transform="translate(-576 -176) translate(576 176) translate(0 2.8) matrix(-1 0 0 1 36 0)"/>
                    <path d="M12 5.4c-2.206 0-4 1.794-4 4s1.794 4 4 4 4-1.794 4-4-1.794-4-4-4z" transform="translate(-576 -176) translate(576 176) translate(0 2.8) matrix(0 1 1 0 2.6 -2.6)"/>
                </g>
                <path d="M.989 2.358l20.723 20.657c.365.364.956.364 1.32 0 .365-.365.365-.956 0-1.32L2.31 1.038c-.365-.364-.956-.364-1.32 0-.365.365-.365.956 0 1.32z" transform="translate(-576 -176) translate(576 176)"/>
            </g>
        </g>
    </g>
</svg>
