<svg xmlns="http://www.w3.org/2000/svg" width="24" height="24" viewBox="0 0 24 24">
    <g fill="none" fill-rule="evenodd">
        <g>
            <g transform="translate(-376 -176) translate(376 176)">
                <path fill="#F8F9FA" d="M17.788 19.201c-.182.205-.37.409-.562.612-1.019 1.075-2.108 2.055-3.197 2.922l-.372.293-.18.137-.505.374-.417.293c-.299.2-.678.221-.994.066l-.116-.066-.417-.293-.506-.374-.179-.137-.372-.293c-1.09-.867-2.178-1.847-3.197-2.922C3.802 16.676 2 13.372 2 10c0-1.886.522-3.65 1.43-5.156l1.468 1.469-.138.279C4.273 7.626 4 8.78 4 10c0 2.753 1.573 5.636 4.226 8.437.95 1.003 1.97 1.921 2.99 2.734l.206.162.393.301.185.139.422-.319.361-.283c1.02-.813 2.041-1.731 2.991-2.734.206-.217.405-.434.597-.652l1.417 1.416zM12 0c5.523 0 10 4.477 10 10 0 2.11-.705 4.192-1.961 6.224l-1.462-1.462C19.497 13.16 20 11.56 20 10c0-4.418-3.582-8-8-8-1.746 0-3.362.56-4.678 1.51L5.894 2.08C7.583.776 9.7 0 12 0z"/>
                <path fill="#FFF" fill-rule="nonzero" d="M.989 2.358l20.723 20.657c.365.364.956.364 1.32 0 .365-.365.365-.956 0-1.32L2.31 1.038c-.365-.364-.956-.364-1.32 0-.365.365-.365.956 0 1.32z"/>
                <circle cx="12" cy="10" r="4" fill="#FFF"/>
            </g>
        </g>
    </g>
</svg>
