<svg xmlns="http://www.w3.org/2000/svg" width="24" height="24" viewBox="0 0 24 24">
    <g fill="none" fill-rule="evenodd">
        <g fill="#F8F9FA" fill-rule="nonzero">
            <g>
                <path d="M12 6c4.005 0 7 2.983 7 7v5.002h2c.552 0 1 .447 1 1V23c0 .552-.448 1-1 1H3c-.552 0-1-.448-1-1v-3.998c0-.553.448-1 1-1h1.999V13c0-4 2.996-7 7.001-7zm8 14H4v2h16v-2zm3.165-10c.461 0 .835.448.835 1 0 .516-.326.94-.744.994l-.091.006h-2.33c-.461 0-.835-.448-.835-1 0-.515.326-.94.744-.994l.091-.006h2.33zm-20 0c.461 0 .835.448.835 1 0 .516-.326.94-.744.994L3.165 12H.835C.374 12 0 11.552 0 11c0-.515.326-.94.744-.994L.835 10h2.33zm.094-5.741c.32-.32.826-.343 1.172-.069l.077.069 1.233 1.233c.345.345.345.904 0 1.25-.172.172-.399.258-.625.258-.193 0-.387-.063-.547-.19l-.077-.069-1.233-1.233c-.345-.345-.345-.904 0-1.25zm16.233 0c.344-.345.904-.345 1.25 0 .32.32.343.825.068 1.172l-.069.077-1.233 1.233c-.172.173-.398.259-.624.259-.226 0-.453-.086-.625-.259-.32-.32-.344-.825-.069-1.172l.069-.077 1.233-1.233zM12 0c.515 0 .94.326.994.744L13 .835v2.33c0 .461-.448.835-1 .835-.515 0-.94-.326-.994-.744L11 3.166V.834C11 .374 11.448 0 12 0z" transform="translate(-216 -176) translate(216 176)"/>
            </g>
        </g>
    </g>
</svg>
