<svg xmlns="http://www.w3.org/2000/svg" width="24" height="24" viewBox="0 0 24 24">
    <g fill="none" fill-rule="evenodd">
        <g fill="#868E96" fill-rule="nonzero">
            <g>
                <path d="M18.879 13.325c-.988-.988-2.596-.988-3.584 0-.478.477-.74 1.114-.74 1.792 0 .164.015.325.045.482-.906.553-2.095.433-2.873-.346l-2.98-2.98c-.779-.778-.9-1.967-.346-2.873.157.03.318.046.482.046.678 0 1.314-.263 1.792-.74.988-.989.988-2.597 0-3.585L6.294.741C5.817.262 5.18 0 4.502 0 3.824 0 3.187.263 2.71.74c-.66.66-.878 1.594-.658 2.437C.306 5.01-.358 7.674.184 10.702c.534 2.985 2.188 5.988 4.656 8.457 2.47 2.47 5.473 4.123 8.458 4.657.689.123 1.358.184 2.004.184 2.192 0 4.105-.703 5.522-2.052.207.054.423.082.644.082.678 0 1.314-.262 1.792-.74.477-.477.74-1.114.74-1.792 0-.678-.263-1.315-.74-1.792l-4.381-4.381zM3.844 2.275c.156-.156.365-.242.589-.242.223 0 .432.086.588.241l4.313 4.314c.325.324.325.852 0 1.176-.156.156-.365.242-.588.242-.223 0-.432-.086-.588-.242L3.844 3.451c-.324-.325-.324-.852 0-1.177zm9.543 19.906c-2.608-.466-5.252-1.93-7.445-4.123-2.192-2.193-3.657-4.837-4.123-7.445-.409-2.282 0-4.278 1.152-5.683l3.861 3.861c-.376.633-.57 1.362-.554 2.117.022 1.03.433 1.997 1.158 2.722l2.934 2.934c.725.725 1.692 1.136 2.722 1.158.754.016 1.484-.178 2.117-.554l3.86 3.86c-1.404 1.152-3.4 1.562-5.682 1.153zm8.338-2.026c-.155.156-.364.242-.588.242-.223 0-.432-.086-.588-.242l-4.313-4.313c-.156-.156-.242-.365-.242-.588 0-.224.086-.432.242-.588.162-.163.375-.244.588-.244.213 0 .426.081.588.244l4.313 4.313c.156.156.242.365.242.588 0 .224-.086.433-.242.588z" transform="translate(-16 -176) translate(16 176)"/>
            </g>
        </g>
    </g>
</svg>
