<svg xmlns="http://www.w3.org/2000/svg" width="24" height="24" viewBox="0 0 24 24">
    <g fill="none" fill-rule="evenodd">
        <g fill="#868E96" fill-rule="nonzero">
            <g>
                <path d="M13 24H8.665c-.513-.002-.927-.423-.925-.94l.001-.37c.001-.25-.095-.487-.27-.664-.176-.178-.409-.276-.657-.276h-.782c-.895 0-1.751-.337-2.41-.949-.44-.407-.98-2.008-1.622-4.801l-2-1 3-6c0-2.38.438-4.757 2.32-6.456C7.158.884 9.706.004 12.62 0c1.714.02 2.9.138 4.381 1v2c-2.647 0-6 1.982-6 6v5.5c-1.105 1.854-1.475 3.645-1.111 5.373.363 1.727 1.4 3.103 3.111 4.127zm7.927-14.934v5.518c0 .607.176 1.195.51 1.701.4.608.612 1.31.612 2.029 0 1.035-.428 2.005-1.206 2.732-.777.726-1.807 1.119-2.9 1.105-2.161-.029-3.952-1.717-3.991-3.765-.014-.745.196-1.47.61-2.099.334-.508.511-1.097.511-1.703V9.67c0-1.517 1.353-2.809 2.928-2.82 1.387 0 2.591.93 2.868 2.217.123.572.76.45 1.912-.37C22.319 6.55 20.264 5 17.95 5c-1.289.01-2.494.506-3.414 1.4-.912.886-1.414 2.047-1.414 3.27l-.001 4.914c0 .26-.075.51-.216.725-.613.932-.926 2.007-.905 3.11.028 1.478.657 2.87 1.77 3.92 1.113 1.05 2.621 1.64 4.18 1.661 1.588 0 3.13-.58 4.262-1.638C23.365 21.285 24 19.847 24 18.314c0-1.067-.314-2.107-.908-3.008-.14-.213-.214-.462-.214-.722V8.697c-1.3-.434-1.951-.311-1.951.369zM18 19c.552 0 1-.448 1-1s-.448-1-1-1-1 .448-1 1 .448 1 1 1zm0-4c-.552 0-1-.366-1-1v-4c0-.634.448-1 1-1s1 .366 1 1v4c0 .634-.448 1-1 1z" transform="translate(-656 -176) translate(656 176)"/>
            </g>
        </g>
    </g>
</svg>
