<svg xmlns="http://www.w3.org/2000/svg" xmlns:xlink="http://www.w3.org/1999/xlink" width="24" height="24" viewBox="0 0 24 24">
    <defs>
        <path id="frhnwq0iva" d="M5 1c0-.552.465-1 1.039-1h1.922C8.535 0 9 .448 9 1s-.465 1-1.039 1H6.039C5.465 2 5 1.552 5 1zm13.247-1H18c-.53 0-1 .478-1 1s.47 1 1 1h.247C20.362 2 22 3.997 22 6v12c0 .522.47 1 1 1s1-.478 1-1V6c0-2.996-2.581-6-5.753-6zm-6.03 10.892c-.366-.366-.96-.366-1.325 0-.366.366-.366.96 0 1.326L21.053 22H6c-2.068 0-4-.932-4-3V5.625c0-.681.056-1.334.394-1.905l3.13 3.13c.184.183.424.275.663.275.24 0 .48-.092.663-.275.367-.366.367-.96 0-1.325L1.6.275C1.234-.092 0-.005 0 .98V19c0 3.102 2.898 5 6 5h17.062c.24 0 .48-.092.663-.275.367-.366.367-.96 0-1.325L12.218 10.892zM10 3c0-1.654 1.346-3 3-3s3 1.346 3 3-1.346 3-3 3-3-1.346-3-3zm4.448 17.71l-3.707-4.03-.743 1.894C9.5 19.842 8.345 21 7.056 21h-1.15c-.5 0-.906-.467-.906-1 0-.533.405-1 .905-1h1.15c.558 0 1.058-.623 1.273-1.172l1.269-3.235c.117-.299.366-.515.664-.576.03-.006.06-.01.09-.013.268-.026.536.077.727.285l4.663 5.07c.35.38.35 1.03-.012 1.365-.29.268-1.103.18-1.28-.013zm-6.7-7.326l1.192-3.241c.267-.728.911-1.199 1.64-1.199h1.711c1.145 0 2.262.501 3.066 1.375l2.093 2.274c.351.382.925.386 1.28.008.357-.377.36-.993.009-1.375l-2.093-2.273C15.504 7.712 13.916 7 12.291 7h-1.71c-1.48 0-2.785.954-3.327 2.43l-1.19 3.241c-.184.5.044 1.064.51 1.261.109.046.221.068.332.068.361 0 .702-.233.843-.616z"/>
    </defs>
    <g fill="none" fill-rule="evenodd">
        <g>
            <g transform="translate(-496 -176) translate(496 176)">
                <path d="M0 0H40V40H0z"/>
                <use fill="#868E96" xlink:href="#frhnwq0iva"/>
            </g>
        </g>
    </g>
</svg>
