<svg xmlns="http://www.w3.org/2000/svg" width="24" height="24" viewBox="0 0 24 24">
    <g fill="none" fill-rule="evenodd">
        <g fill="#868E96" fill-rule="nonzero">
            <g>
                <g>
                    <path d="M9.62.956c.384-.21.865-.069 1.076.315L14.925 9l2.042-2.073c.088-.09.197-.158.317-.197.416-.137.864.09 1.001.506L19.849 12c.461 3.118-.119 6.354-1.97 9-1.817 2.455-4.604 3.942-7.879 4-3.275-.058-6.062-1.545-7.88-4C.27 18.354-.31 15.118.15 12l1.565-4.764c.04-.12.107-.23.197-.318.312-.307.814-.303 1.121.009L5.075 9l4.23-7.729c.072-.133.181-.242.314-.315zm.12 4.594c-.098.052-.178.132-.23.23l-2.957 5.559L5.13 9.853c-.212-.221-.563-.229-.785-.017-.066.064-.116.144-.144.232l-1.095 3.43c-.323 2.246.083 4.576 1.378 6.48 1.273 1.769 3.224 2.839 5.516 2.88 2.292-.041 4.243-1.111 5.516-2.88 1.295-1.904 1.701-4.235 1.378-6.48l-1.095-3.43c-.093-.292-.405-.453-.697-.36-.088.028-.168.078-.232.145l-1.423 1.486-2.957-5.56c-.144-.27-.48-.372-.75-.229z" transform="translate(-336 -176) translate(336 175) translate(2)"/>
                    <path d="M10 21c-3.301 0-4.635-2-4-6l1 1 3-4 3 4 1-1c.635 4-.699 6-4 6z" transform="translate(-336 -176) translate(336 175) translate(2)"/>
                </g>
            </g>
        </g>
    </g>
</svg>
