<svg xmlns="http://www.w3.org/2000/svg" width="24" height="24" viewBox="0 0 24 24">
    <g fill="none" fill-rule="evenodd">
        <g fill="#F8F9FA" fill-rule="nonzero">
            <g>
                <path d="M.293.293c.39-.39 1.024-.39 1.414 0L3.48 2.065c.166-.044.34-.068.52-.068h6c1.205 0 1.945.708 2 2V10c0 .179-.023.352-.067.517l2.39 2.392C14.68 12.362 15.299 12 16 12h4c1.205 0 1.945.708 2 2v6c0 .179-.023.352-.067.517l1.774 1.776c.39.39.39 1.024 0 1.414-.39.39-1.024.39-1.414 0l-1.776-1.774c-.165.044-.338.067-.517.067h-4c-1.105 0-2-.895-2-2v-4.585l-3.483-3.482c-.165.044-.338.067-.517.067H4c-1.105 0-2-.895-2-2V3.997c0-.178.023-.35.067-.514L.293 1.707c-.39-.39-.39-1.024 0-1.414zM10 13.997c1.205 0 1.945.708 2 2V20c0 1.105-.895 2-2 2H4c-1.105 0-2-.895-2-2v-4.003c0-1.105.895-2 2-2h6zm6 3.418V20h2.585L16 17.415zM10 16H4v4h6v-4zm-1 1v2H7v-2h2zm11-3h-4v.585l4 4V14zm0-12c1.205 0 1.945.708 2 2v4c0 1.105-.895 2-2 2h-4c-1.105 0-2-.895-2-2V4c0-1.105.895-2 2-2h4zM4 5.415V10h4.585L4 5.415zM10 4H5.415L10 8.585V4zm10 0h-4v4h4V4zm-1 1v2h-2V5h2z" transform="translate(-136 -176) translate(136 176)"/>
            </g>
        </g>
    </g>
</svg>
