<svg xmlns="http://www.w3.org/2000/svg" width="24" height="24" viewBox="0 0 24 24">
    <g fill="none" fill-rule="evenodd">
        <g fill="#F8F9FA">
            <g>
                <path d="M3 1l20 20c0 1.105-.895 2-2 2l-3.992-4H3c-1.71-.4-3-1.666-3-3V8c0-1.334 1.29-2.6 3-3L1 3c0-1.105.895-2 2-2zm3 6H3c-.55.002-1 .45-1 1v8c0 .552.45 1 1 1h13L6 7zM4 9c.552 0 1 .411 1 1v4c0 .589-.448 1-1 1s-1-.411-1-1v-4c0-.589.448-1 1-1zm12-4c1.709 0 3 1.268 3 3v7l-2-2V8c.198-.767-.24-1.197-1-1h-5L9 5h7zm6 5c.552 0 1 .448 1 1v2c0 .552-.448 1-1 1s-1-.448-1-1v-2c0-.552.448-1 1-1z" transform="translate(-56 -176) translate(56 176)"/>
            </g>
        </g>
    </g>
</svg>
