<svg xmlns="http://www.w3.org/2000/svg" width="24" height="24" viewBox="0 0 24 24">
    <g fill="none" fill-rule="evenodd">
        <path fill="#F8F9FA" fill-opacity=".1" d="M19 8c0-3.866-3.134-7-7-7-3.785 0-6.87 3.005-6.996 6.76L5 8c0 2.9-.523 5.079-1.378 6.646-.286.525-.586.935-.88 1.244-.131.14-.227.224-.274.261l-.023.017C1.622 16.717 2.011 18 3 18h18c.95 0 1.346-1.183.648-1.763l-.093-.07c-.033-.021-.14-.11-.298-.277-.293-.309-.593-.719-.88-1.244C19.524 13.08 19 10.9 19 8z"/>
        <path fill="#DEE2E6" d="M14.232 20.135c.477.277.64.889.363 1.367-.537.925-1.525 1.494-2.595 1.494-1.07 0-2.058-.569-2.595-1.494-.277-.478-.114-1.09.363-1.367.444-.257 1.003-.135 1.303.266l.064.097.065.099c.187.25.483.4.8.4.317 0 .613-.15.8-.4l.13-.196c.299-.401.858-.523 1.302-.266zM12 1c.77 0 1.51.124 2.203.354-.578.473-1.066 1.052-1.435 1.706-.25-.04-.507-.06-.768-.06-2.689 0-4.882 2.122-4.995 4.783L7 8l-.004.456c-.054 3.007-.647 5.367-1.618 7.148l-.114.203L5.15 16h13.7c-.076-.126-.152-.258-.228-.396-.556-1.019-.987-2.227-1.265-3.637.212.021.426.033.643.033.472 0 .932-.055 1.373-.158.237 1.095.58 2.025 1.005 2.804.286.525.586.935.88 1.244.131.14.227.224.274.261l.023.017.093.07c.669.555.333 1.664-.532 1.756L21 18H3c-.95 0-1.346-1.183-.648-1.763l.093-.07.023-.016c.047-.037.143-.122.275-.26.293-.31.593-.72.88-1.245.811-1.489 1.324-3.53 1.373-6.216L5 8l.004-.24C5.131 4.004 8.214 1 12 1z"/>
        <circle cx="18" cy="6" r="4" fill="#E2242A"/>
    </g>
</svg>
