<svg xmlns="http://www.w3.org/2000/svg" width="24" height="24" viewBox="0 0 24 24">
    <g fill="none" fill-rule="evenodd">
        <path fill="#F8F9FA" fill-opacity=".1" d="M19 8c0-3.866-3.134-7-7-7-3.785 0-6.87 3.005-6.996 6.76L5 8c0 2.9-.523 5.079-1.378 6.646-.286.525-.586.935-.88 1.244-.131.14-.227.224-.274.261l-.023.017C1.622 16.717 2.011 18 3 18h18c.95 0 1.346-1.183.648-1.763l-.093-.07c-.033-.021-.14-.11-.298-.277-.293-.309-.593-.719-.88-1.244C19.524 13.08 19 10.9 19 8z"/>
        <path fill="#DEE2E6" d="M12.93 20.4c.299-.4.858-.522 1.302-.265.477.277.64.889.363 1.367-.537.925-1.525 1.494-2.595 1.494-1.07 0-2.058-.569-2.595-1.494-.277-.478-.114-1.09.363-1.367.478-.277 1.09-.114 1.367.363l.065.099c.187.25.483.4.8.4.357 0 .686-.19.865-.499zM12 1c3.866 0 7 3.134 7 7 0 2.9.523 5.079 1.378 6.646.286.525.586.935.88 1.244.157.167.264.256.297.278l.093.07c.698.58.302 1.762-.648 1.762H3c-.99 0-1.378-1.283-.555-1.832l.023-.017c.047-.037.143-.122.275-.26.293-.31.593-.72.88-1.245C4.476 13.08 5 10.9 5 8l.004-.24C5.131 4.004 8.214 1 12 1zm0 2C9.239 3 7 5.239 7 8l-.004.456c-.054 3.007-.647 5.367-1.618 7.148-.076.138-.152.27-.228.396h13.7c-.076-.126-.152-.258-.228-.396C17.602 13.734 17 11.225 17 8c0-2.761-2.239-5-5-5z"/>
    </g>
</svg>
