<svg xmlns="http://www.w3.org/2000/svg" width="120" height="105" viewBox="0 0 120 105">
    <g fill="none" fill-rule="evenodd">
        <g>
            <g transform="translate(-832 -11) translate(832 11)">
                <path stroke="#F8F9FA" stroke-width="7" d="M59.342 9.681c.617-.168 1.299-.1 1.898.242.388.221.71.542.93.93h0l49.662 86.907c.342.599.41 1.28.24 1.898-.168.617-.571 1.17-1.17 1.513-.378.215-.806.329-1.241.329h0-99.322c-.69 0-1.315-.28-1.768-.732-.452-.453-.732-1.078-.732-1.768 0-.435.114-.863.33-1.24h0l49.66-86.907c.343-.6.896-1.003 1.513-1.172z"/>
                <rect width="10" height="36" x="55" y="36" fill="#F8FAFB" rx="5"/>
                <rect width="10" height="10" x="55" y="80" fill="#F8FAFB" rx="5"/>
            </g>
        </g>
    </g>
</svg>
