<svg id="eu1r9ivom27g1" xmlns="http://www.w3.org/2000/svg" xmlns:xlink="http://www.w3.org/1999/xlink" viewBox="0 0 100 100" shape-rendering="geometricPrecision" text-rendering="geometricPrecision"><style><![CDATA[#eu1r9ivom27g4_ts {animation: eu1r9ivom27g4_ts__ts 2000ms linear infinite normal forwards}@keyframes eu1r9ivom27g4_ts__ts { 0% {transform: translate(135px,85px) scale(1,0)} 50% {transform: translate(135px,85px) scale(1,0);animation-timing-function: cubic-bezier(0.420000,0,0.580000,1)} 65% {transform: translate(135px,85px) scale(1,1)} 95% {transform: translate(135px,85px) scale(1,1)} 100% {transform: translate(135px,85px) scale(1,0)} }#eu1r9ivom27g5_tr {animation: eu1r9ivom27g5_tr__tr 2000ms linear infinite normal forwards}@keyframes eu1r9ivom27g5_tr__tr { 0% {transform: translate(80px,60px) rotate(0deg);animation-timing-function: cubic-bezier(0.420000,0,0.580000,1)} 50% {transform: translate(80px,60px) rotate(360deg)} 100% {transform: translate(80px,60px) rotate(360deg)} }#eu1r9ivom27g6_ts {animation: eu1r9ivom27g6_ts__ts 2000ms linear infinite normal forwards}@keyframes eu1r9ivom27g6_ts__ts { 0% {transform: translate(135px,45px) scale(0,0)} 65% {transform: translate(135px,45px) scale(0,0);animation-timing-function: cubic-bezier(0.420000,0,0.580000,1)} 75% {transform: translate(135px,45px) scale(1,1)} 95% {transform: translate(135px,45px) scale(1,1)} 100% {transform: translate(135px,45px) scale(0,0)} }]]></style><rect id="eu1r9ivom27g2" width="100" height="100" rx="8" ry="8" transform="matrix(1 0 0 1 0 0.00000000000001)" fill="rgba(0,0,0,0.6)" stroke="none" stroke-width="1"/><g id="eu1r9ivom27g3" transform="matrix(0.70000000000000 0 0 0.70000000000000 -20.25000000000000 7.99999999999999)"><g id="eu1r9ivom27g4_ts" transform="translate(135,85) scale(1,0)"><polygon id="eu1r9ivom27g4" points="140,65 140,85 130,85 130,65" transform="translate(-135,-85)" fill="rgb(255,255,255)" fill-rule="evenodd" stroke="none" stroke-width="1"/></g><g id="eu1r9ivom27g5_tr" transform="translate(80,60) rotate(0)"><polygon id="eu1r9ivom27g5" points="85,35 85,55 105,55 105,65 85,65 85,85 75,85 75,65 55,65 55,55 75,55 75,35" transform="translate(-80,-60)" fill="rgb(255,255,255)" fill-rule="evenodd" stroke="none" stroke-width="1"/></g><g id="eu1r9ivom27g6_ts" transform="translate(135,45) scale(0,0)"><path id="eu1r9ivom27g6" d="M135,35C140.522847,35,145,39.477153,145,45C145,50.522847,140.522847,55,135,55C129.477153,55,125,50.522847,125,45C125,39.477153,129.477153,35,135,35Z" transform="translate(-135,-45)" fill="rgb(255,255,255)" fill-rule="evenodd" stroke="none" stroke-width="1"/></g></g></svg>