<svg id="ejno2jk1yueq1" xmlns="http://www.w3.org/2000/svg" xmlns:xlink="http://www.w3.org/1999/xlink" viewBox="0 0 200 200" shape-rendering="geometricPrecision" text-rendering="geometricPrecision"><style><![CDATA[#ejno2jk1yueq4_ts {animation: ejno2jk1yueq4_ts__ts 2000ms linear infinite normal forwards}@keyframes ejno2jk1yueq4_ts__ts { 0% {transform: translate(135px,85px) scale(1,0)} 50% {transform: translate(135px,85px) scale(1,0);animation-timing-function: cubic-bezier(0.420000,0,0.580000,1)} 65% {transform: translate(135px,85px) scale(1,1)} 95% {transform: translate(135px,85px) scale(1,1)} 100% {transform: translate(135px,85px) scale(1,0)} }#ejno2jk1yueq5_tr {animation: ejno2jk1yueq5_tr__tr 2000ms linear infinite normal forwards}@keyframes ejno2jk1yueq5_tr__tr { 0% {transform: translate(80px,60px) rotate(0deg);animation-timing-function: cubic-bezier(0.420000,0,0.580000,1)} 50% {transform: translate(80px,60px) rotate(360deg)} 100% {transform: translate(80px,60px) rotate(360deg)} }#ejno2jk1yueq6_ts {animation: ejno2jk1yueq6_ts__ts 2000ms linear infinite normal forwards}@keyframes ejno2jk1yueq6_ts__ts { 0% {transform: translate(135px,45px) scale(0,0)} 65% {transform: translate(135px,45px) scale(0,0);animation-timing-function: cubic-bezier(0.420000,0,0.580000,1)} 75% {transform: translate(135px,45px) scale(1,1)} 95% {transform: translate(135px,45px) scale(1,1)} 100% {transform: translate(135px,45px) scale(0,0)} }]]></style><g id="ejno2jk1yueq2" transform="matrix(1 0 0 1 0 40)"><path id="ejno2jk1yueq3" d="M140,0C173.137085,0,200,26.862915,200,60C200,93.137085,173.137085,120,140,120L60,120C26.862915,120,0,93.137085,0,60C0,26.862915,26.862915,0,60,0L140,0ZM140,10L60,10C32.385762,10,10,32.385762,10,60C10,87.146200,31.633354,109.239659,58.600476,109.980791L60,110L140,110C167.614237,110,190,87.614238,190,60C190,32.853800,168.366646,10.760341,141.399524,10.019209L140,10Z" fill="rgb(206,212,218)" fill-rule="evenodd" stroke="none" stroke-width="1"/><g id="ejno2jk1yueq4_ts" transform="translate(135,85) scale(1,0)"><polygon id="ejno2jk1yueq4" points="140,65 140,85 130,85 130,65" transform="translate(-135,-85)" fill="rgb(206,212,218)" fill-rule="evenodd" stroke="none" stroke-width="1"/></g><g id="ejno2jk1yueq5_tr" transform="translate(80,60) rotate(0)"><polygon id="ejno2jk1yueq5" points="85,35 85,55 105,55 105,65 85,65 85,85 75,85 75,65 55,65 55,55 75,55 75,35" transform="translate(-80,-60)" fill="rgb(206,212,218)" fill-rule="evenodd" stroke="none" stroke-width="1"/></g><g id="ejno2jk1yueq6_ts" transform="translate(135,45) scale(0,0)"><path id="ejno2jk1yueq6" d="M135,35C140.522847,35,145,39.477153,145,45C145,50.522847,140.522847,55,135,55C129.477153,55,125,50.522847,125,45C125,39.477153,129.477153,35,135,35Z" transform="translate(-135,-45)" fill="rgb(206,212,218)" fill-rule="evenodd" stroke="none" stroke-width="1"/></g></g></svg>