<svg xmlns="http://www.w3.org/2000/svg" width="88" height="28" viewBox="0 0 88 28">
    <g fill="none" fill-rule="evenodd">
        <g fill="#CED4DA">
            <g>
                <path d="M76 2c6.627 0 12 5.373 12 12s-5.373 12-12 12H60c-6.627 0-12-5.373-12-12S53.373 2 60 2h16zM22 6c3.238 0 5.878 2.566 5.996 5.775L28 12v6c0 3.314-2.686 6-6 6-3.238 0-5.878-2.566-5.996-5.775L16 18v-6c0-3.314 2.686-6 6-6zm54-2H60c-5.523 0-10 4.477-10 10 0 5.43 4.327 9.848 9.72 9.996L60 24h16c5.523 0 10-4.477 10-10 0-5.43-4.327-9.848-9.72-9.996L76 4zM7 6c3.038 0 4 2.239 4 5 0 2.689-.912 4.882-3.764 4.995L7 16h1l4 7H9l-4-7H2v7H0V8c0-1.054.816-1.918 1.85-1.995L2 6h5zm33 0c3.038 0 4 2.239 4 5 0 2.689-.912 4.882-3.764 4.995L40 16h-5v7h-2V8c0-1.054.816-1.918 1.85-1.995L35 6h5zM22 8c-2.142 0-3.891 1.684-3.995 3.8L18 12v6c0 2.21 1.79 4 4 4 2.142 0 3.891-1.684 3.995-3.8L26 18v-6c0-2.21-1.79-4-4-4zm54 7v4h-2v-4h2zM65 9v4h4v2h-4v4h-2v-4h-4v-2h4V9h2zM7 8H2v6h5c1.4 0 1.96-.744 1.998-2.77L9 11c0-2.121-.51-2.941-1.848-2.997L7 8zm33 0h-5v6h5c1.4 0 1.96-.744 1.998-2.77L42 11c0-2.121-.51-2.941-1.848-2.997L40 8zm35 1c1.105 0 2 .895 2 2s-.895 2-2 2-2-.895-2-2 .895-2 2-2z" transform="translate(-24 -10) translate(24 10)"/>
            </g>
        </g>
    </g>
</svg>
