<svg xmlns="http://www.w3.org/2000/svg" width="24" height="24" viewBox="0 0 24 24">
    <g fill="none" fill-rule="evenodd">
        <path fill="#F8F9FA" fill-opacity=".1" d="M12 2c2.761 0 5 2.239 5 5s-2.239 5-5 5-5-2.239-5-5 2.239-5 5-5zM8 15h8c2.21 0 4 1.79 4 4v3H4v-3c0-2.21 1.79-4 4-4z"/>
        <path fill="#DEE2E6" d="M16 14c2.761 0 5 2.239 5 5v2c0 .552-.448 1-1 1s-1-.448-1-1v-2c0-1.657-1.343-3-3-3H8c-1.657 0-3 1.343-3 3v2c0 .552-.448 1-1 1s-1-.448-1-1v-2c0-2.761 2.239-5 5-5zM12 2c2.761 0 5 2.239 5 5s-2.239 5-5 5-5-2.239-5-5 2.239-5 5-5zm0 2c-1.657 0-3 1.343-3 3s1.343 3 3 3 3-1.343 3-3-1.343-3-3-3z"/>
    </g>
</svg>
